/* XPM */
static char *_933ebbb0e494356cdd6b9892d6f4e5fTFLGGNjO5Q049poJ[] = {
/* columns rows colors chars-per-pixel */
"15 21 12 1 ",
"  c white",
". c black",
"X c #573A23",
"o c #402717",
"O c #AC7B5D",
"+ c #21110D",
"@ c #C1AC8F",
"# c #787E97",
"$ c #A4A8B5",
"% c #2C65B5",
"& c #1D438A",
"* c #85868C",
/* pixels */
"  .... ..      ",
"  .XXo.X...    ",
"  ..XXoXoXX.   ",
" .oXXXXXXXXX.  ",
".oXXXXXXXXXXX. ",
".oXXoXXXooXXX. ",
".ooooXXXoOOoXo.",
".oXooXXoOOOOoo.",
".oXXOoXO+@@+.o.",
".ooXOOo@+@@+.. ",
" .ooOO@@@@@@.  ",
"  .oooO@@@@O.  ",
"   .oXXOOOO.   ",
"   .XXX###.    ",
"   .XXX#$$.    ",
"    .@@%%%.    ",
"    .@@%%&.    ",
"  **..o%&&.**  ",
" ***....oo.*** ",
" ************* ",
"  ***********  "
};
